<svg id="Calque_1" data-name="Calque 1" xmlns="http://www.w3.org/2000/svg" xmlns:xlink="http://www.w3.org/1999/xlink" viewBox="0 0 1281.18 1544.82"><defs><style>.cls-1,.cls-6{opacity:0.38;}.cls-1{fill:url(#Dégradé_sans_nom_8);}.cls-2,.cls-5{opacity:0.26;}.cls-2{fill:url(#Dégradé_sans_nom_8-2);}.cls-3,.cls-4,.cls-8{opacity:0.36;}.cls-3{fill:url(#Dégradé_sans_nom_8-3);}.cls-4{fill:url(#Dégradé_sans_nom_8-4);}.cls-5{fill:url(#Dégradé_sans_nom_8-5);}.cls-6{fill:url(#Dégradé_sans_nom_8-6);}.cls-7{fill:url(#Dégradé_sans_nom_8-7);}.cls-8{fill:url(#Dégradé_sans_nom_8-8);}</style><linearGradient id="Dégradé_sans_nom_8" x1="-5.96" y1="398.83" x2="1501.11" y2="398.83" gradientUnits="userSpaceOnUse"><stop offset="0" stop-color="#fff"/><stop offset="1" stop-color="#371843"/></linearGradient><linearGradient id="Dégradé_sans_nom_8-2" x1="-5.92" y1="469.58" x2="1513.66" y2="469.58" xlink:href="#Dégradé_sans_nom_8"/><linearGradient id="Dégradé_sans_nom_8-3" x1="841.83" y1="941.37" x2="886.83" y2="941.37" gradientTransform="translate(188.69 1522.65) rotate(-120)" xlink:href="#Dégradé_sans_nom_8"/><linearGradient id="Dégradé_sans_nom_8-4" x1="625.43" y1="1090.73" x2="803.43" y2="1090.73" gradientTransform="translate(619.59 1378.29) rotate(-120)" xlink:href="#Dégradé_sans_nom_8"/><linearGradient id="Dégradé_sans_nom_8-5" x1="0.9" y1="497.44" x2="30.36" y2="497.44" xlink:href="#Dégradé_sans_nom_8"/><linearGradient id="Dégradé_sans_nom_8-6" x1="-0.55" y1="381.7" x2="77.5" y2="381.7" xlink:href="#Dégradé_sans_nom_8"/><linearGradient id="Dégradé_sans_nom_8-7" x1="-0.18" y1="893.32" x2="1543.51" y2="893.32" xlink:href="#Dégradé_sans_nom_8"/><linearGradient id="Dégradé_sans_nom_8-8" x1="956.2" y1="411.37" x2="1058.18" y2="411.37" gradientTransform="translate(188.51 1545.84) rotate(-120)" xlink:href="#Dégradé_sans_nom_8"/></defs><title>background</title><path class="cls-1" d="M1280.26,23.18A271.05,271.05,0,0,1,1226.5,72.5c-148.61,103.73-275.25-16.69-450,74-144.76,75.13-140.84,200.84-244,205C421,356,379.41,219.82,247.5,207.5,148.9,198.29,61.1,265,1,325Q2.38,549.75,3.75,774.48H1280.26Z" transform="translate(0.18 -23.18)"/><path class="cls-2" d="M1280.26,135.69a272.67,272.67,0,0,1-41.76,35.81c-148.61,103.73-275.25-16.69-450,74-144.76,75.13-140.84,200.84-244,205-113.56,4.58-153.5-152.64-285-144C188.44,311.17,127.82,361.33,98,386A399.49,399.49,0,0,0,2,503Q4.82,653.24,7.63,803.48H1280.26Z" transform="translate(0.18 -23.18)"/><circle class="cls-3" cx="571.78" cy="303.44" r="22.5"/><path class="cls-4" d="M1280.26,163.44a89,89,0,1,0,0,101.39Z" transform="translate(0.18 -23.18)"/><path class="cls-5" d="M30.36,475.92C20.81,489.17,10.82,503.64.9,519" transform="translate(0.18 -23.18)"/><path class="cls-6" d="M.33,431.76v.14L77.5,331.5A1113.48,1113.48,0,0,0,.33,431.76Z" transform="translate(0.18 -23.18)"/><path class="cls-7" d="M1280.26,218.65c-3.77,4.39-7.67,8.74-11.76,13-148.61,155.49-275.25-25-450,110.93-144.76,112.63-140.84,301.07-244,307.31C469.84,656.24,422.86,433.53,289.5,434c-91.33.35-162,106.57-201.5,166C15.3,709.29,2.44,819.24-.18,873.77L3,1562l1278,6Q1280.63,893.33,1280.26,218.65Z" transform="translate(0.18 -23.18)"/><path class="cls-8" d="M85.16,442.5A51,51,0,0,0,.33,437.22v61.53A51,51,0,0,0,85.16,442.5Z" transform="translate(0.18 -23.18)"/></svg>